<?xml version="1.0" encoding="UTF-8" standalone="no"?><svg xmlns="http://www.w3.org/2000/svg" xmlns:xlink="http://www.w3.org/1999/xlink" clip-rule="evenodd" stroke-miterlimit="10" viewBox="0 0 1024 768"><desc>SVG generated by Keynote</desc><defs></defs><g transform="matrix(1.00, 0.00, -0.00, -1.00, 0.0, 768.0)"><path d="M 0.0 768.0 L 1024.0 768.0 L 1024.0 0.0 L 0.0 0.0 Z M 0.0 768.0 " fill="#FEFFFF"></path><path d="M 0.0 -0.5 L 112.0 -0.5 L 112.0 -0.5 L 0.0 -0.5 Z M 0.0 0.0 " fill="none" stroke="#9A9A99" stroke-width="1.00" transform="matrix(0.00, -1.00, -1.00, 0.00, 594.0, 140.0)"></path><g><clipPath id="clip0x6180006adc20"><path d="M 0.0 768.0 L 1024.0 768.0 L 1024.0 170.0 L 0.0 170.0 Z M 0.0 768.0 "></path></clipPath><g clip-path="url(#clip0x6180006adc20)"><image xlink:href="../../7498A121-3F95-45A9-B8FB-3A37CA7A942B/assets/54D503689409E046481BA74285DC957D.png" width="980.00" height="540.00" transform="matrix(1.11, 0.00, -0.00, -1.11, -31.0, 768.0)"></image></g></g><text xml:space="preserve" font-family="HelveticaNeue-Light,Helvetica Neue" font-size="42.0" fill="#000000" transform="matrix(1.00, 0.00, -0.00, -1.00, 208.3, 72.2)">U</text><text xml:space="preserve" font-family="HelveticaNeue-Light,Helvetica Neue" font-size="42.0" fill="#000000" transform="matrix(1.00, 0.00, -0.00, -1.00, 237.0, 72.2)">n</text><text xml:space="preserve" font-family="HelveticaNeue-Light,Helvetica Neue" font-size="42.0" fill="#000000" transform="matrix(1.00, 0.00, -0.00, -1.00, 259.6, 72.2)">i</text><text xml:space="preserve" font-family="HelveticaNeue-Light,Helvetica Neue" font-size="42.0" fill="#000000" transform="matrix(1.00, 0.00, -0.00, -1.00, 267.4, 72.2)">ï¬</text><text xml:space="preserve" font-family="HelveticaNeue-Light,Helvetica Neue" font-size="42.0" fill="#000000" transform="matrix(1.00, 0.00, -0.00, -1.00, 286.0, 72.2)">e</text><text xml:space="preserve" font-family="HelveticaNeue-Light,Helvetica Neue" font-size="42.0" fill="#000000" transform="matrix(1.00, 0.00, -0.00, -1.00, 307.8, 72.2)">d</text><text xml:space="preserve" font-family="HelveticaNeue-Light,Helvetica Neue" font-size="42.0" fill="#000000" transform="matrix(1.00, 0.00, -0.00, -1.00, 331.9, 72.2)"> </text><text xml:space="preserve" font-family="HelveticaNeue-Light,Helvetica Neue" font-size="42.0" fill="#000000" transform="matrix(1.00, 0.00, -0.00, -1.00, 343.6, 72.2)">P</text><text xml:space="preserve" font-family="HelveticaNeue-Light,Helvetica Neue" font-size="42.0" fill="#000000" transform="matrix(1.00, 0.00, -0.00, -1.00, 370.1, 72.2)">u</text><text xml:space="preserve" font-family="HelveticaNeue-Light,Helvetica Neue" font-size="42.0" fill="#000000" transform="matrix(1.00, 0.00, -0.00, -1.00, 392.6, 72.2)">s</text><text xml:space="preserve" font-family="HelveticaNeue-Light,Helvetica Neue" font-size="42.0" fill="#000000" transform="matrix(1.00, 0.00, -0.00, -1.00, 412.8, 72.2)">h</text><text xml:space="preserve" font-family="HelveticaNeue-Light,Helvetica Neue" font-size="42.0" fill="#000000" transform="matrix(1.00, 0.00, -0.00, -1.00, 435.4, 72.2)"> </text><text xml:space="preserve" font-family="HelveticaNeue-Light,Helvetica Neue" font-size="42.0" fill="#000000" transform="matrix(1.00, 0.00, -0.00, -1.00, 447.0, 72.2)">S</text><text xml:space="preserve" font-family="HelveticaNeue-Light,Helvetica Neue" font-size="42.0" fill="#000000" transform="matrix(1.00, 0.00, -0.00, -1.00, 473.5, 72.2)">e</text><text xml:space="preserve" font-family="HelveticaNeue-Light,Helvetica Neue" font-size="42.0" fill="#000000" transform="matrix(1.00, 0.00, -0.00, -1.00, 495.3, 72.2)">r</text><text xml:space="preserve" font-family="HelveticaNeue-Light,Helvetica Neue" font-size="42.0" fill="#000000" transform="matrix(1.00, 0.00, -0.00, -1.00, 508.5, 72.2)">v</text><text xml:space="preserve" font-family="HelveticaNeue-Light,Helvetica Neue" font-size="42.0" fill="#000000" transform="matrix(1.00, 0.00, -0.00, -1.00, 528.0, 72.2)">e</text><text xml:space="preserve" font-family="HelveticaNeue-Light,Helvetica Neue" font-size="42.0" fill="#000000" transform="matrix(1.00, 0.00, -0.00, -1.00, 549.8, 72.2)">r</text></g></svg>